HIERARCHY
ROOT Hips
{
  OFFSET 51.7939 84.6963 33.208
  CHANNELS 6 Xposition Yposition Zposition Zrotation Xrotation Yrotation
  JOINT spine
  {
    OFFSET 0 5.95438 0.342407
    CHANNELS 3 Zrotation Xrotation Yrotation
    JOINT spine1
    {
      OFFSET 0 8.85602 0
      CHANNELS 3 Zrotation Xrotation Yrotation
      JOINT spine2
      {
        OFFSET 0 8.48567 0
        CHANNELS 3 Zrotation Xrotation Yrotation
        JOINT Neck
        {
          OFFSET 0 21.7863 1.0387
          CHANNELS 3 Zrotation Xrotation Yrotation
          JOINT Head
          {
            OFFSET 0 6.5822 0
            CHANNELS 3 Zrotation Xrotation Yrotation
            End Site
            {
              OFFSET 0 15.9326 -5.25436
            }
          }
        }
        JOINT RightShoulder
        {
          OFFSET -3.57307 9.16386 -0.497525
          CHANNELS 3 Zrotation Xrotation Yrotation
          JOINT RightArm
          {
            OFFSET 0 12.0192 0
            CHANNELS 3 Zrotation Xrotation Yrotation
            JOINT RightArmRoll
            {
              OFFSET 0 6.06755 0
              CHANNELS 3 Zrotation Xrotation Yrotation
              JOINT RightForeArm
              {
                OFFSET 0 17.6726 0
                CHANNELS 3 Zrotation Xrotation Yrotation
                JOINT RightForeArmRoll
                {
                  OFFSET 0 6.80873 0
                  CHANNELS 3 Zrotation Xrotation Yrotation
                  JOINT RightHand
                  {
                    OFFSET 0 13.6636 0
                    CHANNELS 3 Zrotation Xrotation Yrotation
                    End Site
                    {
                      OFFSET 0 0 0
                    }
                  }
                }
              }
            }
          }
        }
        JOINT LeftShoulder
        {
          OFFSET 3.57307 9.16386 -0.497525
          CHANNELS 3 Zrotation Xrotation Yrotation
          JOINT LeftArm
          {
            OFFSET 0 12.0192 0
            CHANNELS 3 Zrotation Xrotation Yrotation
            JOINT LeftArmRoll
            {
              OFFSET 0 6.06755 0
              CHANNELS 3 Zrotation Xrotation Yrotation
              JOINT LeftForeArm
              {
                OFFSET 0 17.6726 0
                CHANNELS 3 Zrotation Xrotation Yrotation
                JOINT LeftForeArmRoll
                {
                  OFFSET 0 6.80872 0
                  CHANNELS 3 Zrotation Xrotation Yrotation
                  JOINT LeftHand
                  {
                    OFFSET 0 13.6636 0
                    CHANNELS 3 Zrotation Xrotation Yrotation
                    End Site
                    {
                      OFFSET 0 0 0
                    }
                  }
                }
              }
            }
          }
        }
      }
    }
  }
  JOINT RightUpLeg
  {
    OFFSET -5.27774 -0.967797 -0.811858
    CHANNELS 3 Zrotation Xrotation Yrotation
    JOINT RightUpLegRoll
    {
      OFFSET 0 16.0214 0
      CHANNELS 3 Zrotation Xrotation Yrotation
      JOINT RightLeg
      {
        OFFSET 0 -19.8401 0
        CHANNELS 3 Zrotation Xrotation Yrotation
        JOINT RightLegRoll
        {
          OFFSET 0 19.905 0
          CHANNELS 3 Zrotation Xrotation Yrotation
          JOINT RightFoot
          {
            OFFSET 0 16.5675 0
            CHANNELS 3 Zrotation Xrotation Yrotation
            JOINT RightToeBase
            {
              OFFSET 0 13.8496 0
              CHANNELS 3 Zrotation Xrotation Yrotation
              End Site
              {
                OFFSET 0.00587034 6.70727 -0.773117
              }
            }
          }
        }
      }
    }
  }
  JOINT LeftUpLeg
  {
    OFFSET 5.27774 -0.967797 -0.811858
    CHANNELS 3 Zrotation Xrotation Yrotation
    JOINT LeftUpLegRoll
    {
      OFFSET 0 16.0215 0
      CHANNELS 3 Zrotation Xrotation Yrotation
      JOINT LeftLeg
      {
        OFFSET 0 19.84 0
        CHANNELS 3 Zrotation Xrotation Yrotation
        JOINT LeftLegRoll
        {
          OFFSET 0 20.089 0
          CHANNELS 3 Zrotation Xrotation Yrotation
          JOINT LeftFoot
          {
            OFFSET 0 16.3835 0
            CHANNELS 3 Zrotation Xrotation Yrotation
            JOINT LeftToeBase
            {
              OFFSET 0 13.8496 0
              CHANNELS 3 Zrotation Xrotation Yrotation
              End Site
              {
                OFFSET -0.0263083 6.70728 -0.773117
              }
            }
          }
        }
      }
    }
  }
}
MOTION
Frames: 4
Frame Time: 0.00208333
50.0316 64.5873 1.85715 -11.2458 35.5348 12.1217 1.19286 1.03374 0.133737 2.3931 6.07033 0.0961094 2.39712 7.71458 0.0522128 -3.42563 17.8594 -2.6098 2.8076 9.36702 -3.94404 67.1604 0.427615 -0.697464 107.081 29.059 -10.9765 2.50301e-006 5.97075e-006 -1.79438e-006 -3.64249 -0.0275203 -1.99238 -1.04499e-005 -2.89201e-006 -3.01159 8.03009 -4.95138 0.697617 -58.0475 -4.1289 2.44279 -128.447 33.9068 33.0166 -1.11319e-014 9.54166e-015 -0 3.64477 -0.0326982 1.99274 1.81847e-006 -1.32537e-006 3.01161 -8.03008 -4.95138 -0.697622 -2.33254 82.0795 -179.275 180 3.05162e-005 179.458 178.663 66.2649 177.875 2.56574e-006 -4.47282e-006 1.24394 -20.135 69.3873 20.7772 8.13649 25.2327 -3.48773 40.0859 77.6797 147.912 -1.06817e-005 1.05815e-005 -0.546791 14.4822 -64.0511 11.945 -5.41347e-006 3.00303e-007 -1.16805 17.6624 65.4946 -17.6439 -8.13649 25.2327 3.48773 
50.0517 64.6646 1.93468 -11.2297 35.5669 12.109 1.19044 1.03686 0.133484 2.38826 6.07676 0.0960421 2.39227 7.72102 0.0523031 -3.37089 17.8386 -2.6436 2.78169 9.34127 -3.95589 67.2301 0.411989 -0.714118 107.042 29.0572 -10.963 2.50301e-006 5.97075e-006 -1.79438e-006 -3.64257 -0.0275203 -1.99238 -1.04499e-005 -2.89201e-006 -3.01159 8.03009 -4.95138 0.697617 -58.113 -4.09376 2.42543 -128.357 33.9323 32.9347 5.56597e-015 6.36111e-015 3.18055e-015 3.64478 -0.032709 1.99274 1.81847e-006 -1.32537e-006 3.01161 -8.03008 -4.95138 -0.697622 -2.49443 82.1925 -179.127 180 3.05162e-005 179.459 178.665 66.1496 177.876 2.56574e-006 -4.47282e-006 1.2407 -20.1313 69.3848 20.7746 8.13649 25.2327 -3.48773 40.3696 77.7953 147.625 -1.06817e-005 1.05815e-005 -0.546551 14.3951 -63.9406 11.8628 -5.41347e-006 3.00303e-007 -1.1628 17.6623 65.499 -17.6463 -8.13649 25.2327 3.48773 
49.9713 64.7161 1.96671 -11.2172 35.5972 12.0963 1.1886 1.04004 0.133222 2.38458 6.08323 0.0958415 2.38858 7.72749 0.0522979 -3.31866 17.8186 -2.67569 2.75748 9.31574 -3.96704 67.3033 0.399515 -0.729536 106.998 29.0567 -10.9454 2.50301e-006 5.97075e-006 -1.79438e-006 -3.64265 -0.0275203 -1.99238 -1.04499e-005 -2.89201e-006 -3.01159 8.03009 -4.95138 0.697617 -58.1819 -4.05958 2.40892 -128.263 33.9593 32.8484 -6.36111e-015 0 -0 3.64479 -0.0327198 1.99274 1.81847e-006 -1.32537e-006 3.01161 -8.03008 -4.95138 -0.697622 -2.67985 82.3068 -178.952 180 3.05162e-005 179.459 178.666 66.0343 177.88 2.56574e-006 -4.47282e-006 1.2374 -20.1273 69.382 20.7716 8.13649 25.2327 -3.48773 40.6561 77.9154 147.337 -1.06817e-005 1.05815e-005 -0.546314 14.3097 -63.8285 11.7817 -5.41347e-006 3.00303e-007 -1.15723 17.6613 65.5026 -17.6477 -8.13649 25.2327 3.48773 
49.9869 64.7907 2.03441 -11.2079 35.6257 12.0835 1.18725 1.04326 0.132952 2.38187 6.08973 0.0955268 2.38587 7.73399 0.0522111 -3.2682 17.7996 -2.70639 2.73433 9.29026 -3.97751 67.3796 0.389641 -0.743959 106.95 29.0576 -10.9241 2.50301e-006 5.97075e-006 -1.79438e-006 -3.64273 -0.0275203 -1.99238 -1.04499e-005 -2.89201e-006 -3.01159 8.03009 -4.95138 0.697617 -58.2539 -4.02596 2.39299 -128.164 33.9876 32.7579 3.26007e-014 -9.54166e-015 -6.36111e-015 3.64479 -0.0327307 1.99274 1.81847e-006 -1.32537e-006 3.01161 -8.03008 -4.95138 -0.697622 -2.8871 82.4224 -178.754 180 3.05162e-005 179.46 178.665 65.9188 177.885 2.56574e-006 -4.47282e-006 1.23404 -20.1229 69.3789 20.7684 8.13649 25.2327 -3.48773 40.9463 78.0393 147.048 -1.06817e-005 1.05815e-005 -0.546083 14.2259 -63.7149 11.7014 -5.41347e-006 3.00303e-007 -1.15139 17.6597 65.5054 -17.6482 -8.13649 25.2327 3.48773 
